<?xml version="1.0" standalone="no"?><svg xmlns:xlink="http://www.w3.org/1999/xlink" xmlns="http://www.w3.org/2000/svg" viewBox="0 0 1000 399.99228205839995" preserveAspectRatio="xMaxYMax slice"><g transform="scale(1.24482929033527)"><rect x="0" y="0" width="803.3325" height="321.33299999999997" fill="#ffffff"/><circle cx="16.064999999999998" cy="16.064999999999998" r="3.215" fill="#e6e5f3"/><circle cx="48.205" cy="16.064999999999998" r="3.215" fill="#f7f7fb"/><circle cx="80.33500000000001" cy="16.064999999999998" r="3.215" fill="#fdfdff"/><circle cx="112.465" cy="16.064999999999998" r="3.215" fill="#d5d4ec"/><circle cx="144.605" cy="16.064999999999998" r="3.215" fill="#fafaff"/><circle cx="176.735" cy="16.064999999999998" r="3.215" fill="#6f72f2"/><circle cx="208.865" cy="16.064999999999998" r="3.215" fill="#ededf7"/><circle cx="241.005" cy="16.064999999999998" r="3.215" fill="#f0f0f8"/><circle cx="273.135" cy="16.064999999999998" r="3.215" fill="#efeffe"/><circle cx="305.265" cy="16.064999999999998" r="3.215" fill="#b8b9f9"/><circle cx="337.405" cy="16.064999999999998" r="3.215" fill="#7578f3"/><circle cx="369.53499999999997" cy="16.064999999999998" r="3.215" fill="#9b97d1"/><circle cx="401.66499999999996" cy="16.064999999999998" r="3.215" fill="#9a9cf6"/><circle cx="433.80499999999995" cy="16.064999999999998" r="3.215" fill="#5b56b4"/><circle cx="465.935" cy="16.064999999999998" r="3.215" fill="#827ec5"/><circle cx="498.065" cy="16.064999999999998" r="3.215" fill="#bbbdf9"/><circle cx="530.205" cy="16.064999999999998" r="3.215" fill="#e7e7fd"/><circle cx="562.335" cy="16.064999999999998" r="3.215" fill="#ebecfd"/><circle cx="594.465" cy="16.064999999999998" r="3.215" fill="#5c56b4"/><circle cx="626.605" cy="16.064999999999998" r="3.215" fill="#4a43ac"/><circle cx="658.735" cy="16.064999999999998" r="3.215" fill="#f2f2fe"/><circle cx="690.865" cy="16.064999999999998" r="3.215" fill="#f5f4fa"/><circle cx="723.005" cy="16.064999999999998" r="3.215" fill="#c4c5fa"/><circle cx="755.135" cy="16.064999999999998" r="3.215" fill="#413ba8"/><circle cx="787.265" cy="16.064999999999998" r="3.215" fill="#807bc4"/><circle cx="16.064999999999998" cy="48.205" r="3.215" fill="#ebecfd"/><circle cx="48.205" cy="48.205" r="3.215" fill="#b5b6f8"/><circle cx="80.33500000000001" cy="48.205" r="3.215" fill="#e4e4fd"/><circle cx="112.465" cy="48.205" r="3.215" fill="#abacf7"/><circle cx="144.605" cy="48.205" r="3.215" fill="#d3d4fb"/><circle cx="176.735" cy="48.205" r="3.215" fill="#a29fd4"/><circle cx="208.865" cy="48.205" r="3.215" fill="#8d89ca"/><circle cx="241.005" cy="48.205" r="3.215" fill="#d9d8ee"/><circle cx="273.135" cy="48.205" r="3.215" fill="#d7d7fb"/><circle cx="305.265" cy="48.205" r="3.215" fill="#9895d0"/><circle cx="337.405" cy="48.205" r="3.215" fill="#ececfd"/><circle cx="369.53499999999997" cy="48.205" r="3.215" fill="#a8a5d7"/><circle cx="401.66499999999996" cy="48.205" r="3.215" fill="#676af1"/><circle cx="433.80499999999995" cy="48.205" r="3.215" fill="#787bf3"/><circle cx="465.935" cy="48.205" r="3.215" fill="#3b34a5"/><circle cx="498.065" cy="48.205" r="3.215" fill="#ebeaf6"/><circle cx="530.205" cy="48.205" r="3.215" fill="#605ab6"/><circle cx="562.335" cy="48.205" r="3.215" fill="#9193f5"/><circle cx="594.465" cy="48.205" r="3.215" fill="#a7a8f7"/><circle cx="626.605" cy="48.205" r="3.215" fill="#7679f3"/><circle cx="658.735" cy="48.205" r="3.215" fill="#dfe0fc"/><circle cx="690.865" cy="48.205" r="3.215" fill="#9092f5"/><circle cx="723.005" cy="48.205" r="3.215" fill="#9c98d1"/><circle cx="755.135" cy="48.205" r="3.215" fill="#9a9cf6"/><circle cx="787.265" cy="48.205" r="3.215" fill="#d4d2eb"/><circle cx="16.064999999999998" cy="80.33500000000001" r="3.215" fill="#e2e3fc"/><circle cx="48.205" cy="80.33500000000001" r="3.215" fill="#b9b6df"/><circle cx="80.33500000000001" cy="80.33500000000001" r="3.215" fill="#4e47ad"/><circle cx="112.465" cy="80.33500000000001" r="3.215" fill="#fdfdfe"/><circle cx="144.605" cy="80.33500000000001" r="3.215" fill="#adaad9"/><circle cx="176.735" cy="80.33500000000001" r="3.215" fill="#a4a6f7"/><circle cx="208.865" cy="80.33500000000001" r="3.215" fill="#dddbef"/><circle cx="241.005" cy="80.33500000000001" r="3.215" fill="#a2a4f7"/><circle cx="273.135" cy="80.33500000000001" r="3.215" fill="#4d47ad"/><circle cx="305.265" cy="80.33500000000001" r="3.215" fill="#837fc6"/><circle cx="337.405" cy="80.33500000000001" r="3.215" fill="#f9f8fc"/><circle cx="369.53499999999997" cy="80.33500000000001" r="3.215" fill="#b0addb"/><circle cx="401.66499999999996" cy="80.33500000000001" r="3.215" fill="#9996d0"/><circle cx="433.80499999999995" cy="80.33500000000001" r="3.215" fill="#f8f8fc"/><circle cx="465.935" cy="80.33500000000001" r="3.215" fill="#797cf3"/><circle cx="498.065" cy="80.33500000000001" r="3.215" fill="#5f59b5"/><circle cx="530.205" cy="80.33500000000001" r="3.215" fill="#aaa7d8"/><circle cx="562.335" cy="80.33500000000001" r="3.215" fill="#e9eafd"/><circle cx="594.465" cy="80.33500000000001" r="3.215" fill="#cecce8"/><circle cx="626.605" cy="80.33500000000001" r="3.215" fill="#7073f2"/><circle cx="658.735" cy="80.33500000000001" r="3.215" fill="#6568f1"/><circle cx="690.865" cy="80.33500000000001" r="3.215" fill="#deddf0"/><circle cx="723.005" cy="80.33500000000001" r="3.215" fill="#d0d1fb"/><circle cx="755.135" cy="80.33500000000001" r="3.215" fill="#efeffe"/><circle cx="787.265" cy="80.33500000000001" r="3.215" fill="#e7e6f4"/><circle cx="16.064999999999998" cy="112.465" r="3.215" fill="#dddefc"/><circle cx="48.205" cy="112.465" r="3.215" fill="#fdfdff"/><circle cx="80.33500000000001" cy="112.465" r="3.215" fill="#a3a4f7"/><circle cx="112.465" cy="112.465" r="3.215" fill="#8a86c9"/><circle cx="144.605" cy="112.465" r="3.215" fill="#b9b6df"/><circle cx="176.735" cy="112.465" r="3.215" fill="#fbfbfd"/><circle cx="208.865" cy="112.465" r="3.215" fill="#e4e4fd"/><circle cx="241.005" cy="112.465" r="3.215" fill="#7678f3"/><circle cx="273.135" cy="112.465" r="3.215" fill="#9294f5"/><circle cx="305.265" cy="112.465" r="3.215" fill="#5e58b5"/><circle cx="337.405" cy="112.465" r="3.215" fill="#b5b6f8"/><circle cx="369.53499999999997" cy="112.465" r="3.215" fill="#dedefc"/><circle cx="401.66499999999996" cy="112.465" r="3.215" fill="#cfd0fb"/><circle cx="433.80499999999995" cy="112.465" r="3.215" fill="#b0adda"/><circle cx="465.935" cy="112.465" r="3.215" fill="#dddefc"/><circle cx="498.065" cy="112.465" r="3.215" fill="#e4e3f3"/><circle cx="530.205" cy="112.465" r="3.215" fill="#8d8ff5"/><circle cx="562.335" cy="112.465" r="3.215" fill="#8b8df5"/><circle cx="594.465" cy="112.465" r="3.215" fill="#c0bee2"/><circle cx="626.605" cy="112.465" r="3.215" fill="#7b7df3"/><circle cx="658.735" cy="112.465" r="3.215" fill="#dedefc"/><circle cx="690.865" cy="112.465" r="3.215" fill="#8682c7"/><circle cx="723.005" cy="112.465" r="3.215" fill="#615bb6"/><circle cx="755.135" cy="112.465" r="3.215" fill="#ebebf6"/><circle cx="787.265" cy="112.465" r="3.215" fill="#7173f2"/><circle cx="16.064999999999998" cy="144.605" r="3.215" fill="#534db0"/><circle cx="48.205" cy="144.605" r="3.215" fill="#3b34a5"/><circle cx="80.33500000000001" cy="144.605" r="3.215" fill="#4741aa"/><circle cx="112.465" cy="144.605" r="3.215" fill="#f2f1f9"/><circle cx="144.605" cy="144.605" r="3.215" fill="#3f38a7"/><circle cx="176.735" cy="144.605" r="3.215" fill="#e2e1f2"/><circle cx="208.865" cy="144.605" r="3.215" fill="#adaff8"/><circle cx="241.005" cy="144.605" r="3.215" fill="#a9a6d7"/><circle cx="273.135" cy="144.605" r="3.215" fill="#413aa8"/><circle cx="305.265" cy="144.605" r="3.215" fill="#d6d7fb"/><circle cx="337.405" cy="144.605" r="3.215" fill="#524caf"/><circle cx="369.53499999999997" cy="144.605" r="3.215" fill="#a1a3f7"/><circle cx="401.66499999999996" cy="144.605" r="3.215" fill="#d9d8ee"/><circle cx="433.80499999999995" cy="144.605" r="3.215" fill="#f2f2fe"/><circle cx="465.935" cy="144.605" r="3.215" fill="#645eb8"/><circle cx="498.065" cy="144.605" r="3.215" fill="#7570bf"/><circle cx="530.205" cy="144.605" r="3.215" fill="#babcf9"/><circle cx="562.335" cy="144.605" r="3.215" fill="#9fa0f6"/><circle cx="594.465" cy="144.605" r="3.215" fill="#bfbde2"/><circle cx="626.605" cy="144.605" r="3.215" fill="#eeeffd"/><circle cx="658.735" cy="144.605" r="3.215" fill="#797bf3"/><circle cx="690.865" cy="144.605" r="3.215" fill="#c2c0e3"/><circle cx="723.005" cy="144.605" r="3.215" fill="#b4b1dc"/><circle cx="755.135" cy="144.605" r="3.215" fill="#4e47ad"/><circle cx="787.265" cy="144.605" r="3.215" fill="#aaacf7"/><circle cx="16.064999999999998" cy="176.735" r="3.215" fill="#7975c1"/><circle cx="48.205" cy="176.735" r="3.215" fill="#696cf2"/><circle cx="80.33500000000001" cy="176.735" r="3.215" fill="#bcbdf9"/><circle cx="112.465" cy="176.735" r="3.215" fill="#f2f2fe"/><circle cx="144.605" cy="176.735" r="3.215" fill="#c8c6e5"/><circle cx="176.735" cy="176.735" r="3.215" fill="#c5c2e4"/><circle cx="208.865" cy="176.735" r="3.215" fill="#d8d9fc"/><circle cx="241.005" cy="176.735" r="3.215" fill="#fefdfe"/><circle cx="273.135" cy="176.735" r="3.215" fill="#676af1"/><circle cx="305.265" cy="176.735" r="3.215" fill="#afb0f8"/><circle cx="337.405" cy="176.735" r="3.215" fill="#dadbfc"/><circle cx="369.53499999999997" cy="176.735" r="3.215" fill="#9a9cf6"/><circle cx="401.66499999999996" cy="176.735" r="3.215" fill="#e6e6fd"/><circle cx="433.80499999999995" cy="176.735" r="3.215" fill="#8083f4"/><circle cx="465.935" cy="176.735" r="3.215" fill="#5e58b5"/><circle cx="498.065" cy="176.735" r="3.215" fill="#b2b0dc"/><circle cx="530.205" cy="176.735" r="3.215" fill="#f2f1f9"/><circle cx="562.335" cy="176.735" r="3.215" fill="#a29fd4"/><circle cx="594.465" cy="176.735" r="3.215" fill="#b9bbf9"/><circle cx="626.605" cy="176.735" r="3.215" fill="#f8f8fc"/><circle cx="658.735" cy="176.735" r="3.215" fill="#9491ce"/><circle cx="690.865" cy="176.735" r="3.215" fill="#b6b3dd"/><circle cx="723.005" cy="176.735" r="3.215" fill="#f8f8fe"/><circle cx="755.135" cy="176.735" r="3.215" fill="#9c99d2"/><circle cx="787.265" cy="176.735" r="3.215" fill="#dbdcfc"/><circle cx="16.064999999999998" cy="208.865" r="3.215" fill="#4640aa"/><circle cx="48.205" cy="208.865" r="3.215" fill="#7073f2"/><circle cx="80.33500000000001" cy="208.865" r="3.215" fill="#5953b3"/><circle cx="112.465" cy="208.865" r="3.215" fill="#e4e5fd"/><circle cx="144.605" cy="208.865" r="3.215" fill="#ededfd"/><circle cx="176.735" cy="208.865" r="3.215" fill="#d3d4fb"/><circle cx="208.865" cy="208.865" r="3.215" fill="#5d58b5"/><circle cx="241.005" cy="208.865" r="3.215" fill="#413ba8"/><circle cx="273.135" cy="208.865" r="3.215" fill="#e7e6f4"/><circle cx="305.265" cy="208.865" r="3.215" fill="#8783c8"/><circle cx="337.405" cy="208.865" r="3.215" fill="#a5a7f7"/><circle cx="369.53499999999997" cy="208.865" r="3.215" fill="#8a8cf5"/><circle cx="401.66499999999996" cy="208.865" r="3.215" fill="#6762b9"/><circle cx="433.80499999999995" cy="208.865" r="3.215" fill="#9d9ad2"/><circle cx="465.935" cy="208.865" r="3.215" fill="#938fcd"/><circle cx="498.065" cy="208.865" r="3.215" fill="#cccae8"/><circle cx="530.205" cy="208.865" r="3.215" fill="#5953b3"/><circle cx="562.335" cy="208.865" r="3.215" fill="#e6e7fd"/><circle cx="594.465" cy="208.865" r="3.215" fill="#837ec6"/><circle cx="626.605" cy="208.865" r="3.215" fill="#adaad9"/><circle cx="658.735" cy="208.865" r="3.215" fill="#797cf3"/><circle cx="690.865" cy="208.865" r="3.215" fill="#423ba8"/><circle cx="723.005" cy="208.865" r="3.215" fill="#e7e7fd"/><circle cx="755.135" cy="208.865" r="3.215" fill="#7c78c3"/><circle cx="787.265" cy="208.865" r="3.215" fill="#7b7df3"/><circle cx="16.064999999999998" cy="241.005" r="3.215" fill="#b1aedb"/><circle cx="48.205" cy="241.005" r="3.215" fill="#ececf6"/><circle cx="80.33500000000001" cy="241.005" r="3.215" fill="#b1aedb"/><circle cx="112.465" cy="241.005" r="3.215" fill="#696cf2"/><circle cx="144.605" cy="241.005" r="3.215" fill="#6762b9"/><circle cx="176.735" cy="241.005" r="3.215" fill="#5b56b4"/><circle cx="208.865" cy="241.005" r="3.215" fill="#6f72f2"/><circle cx="241.005" cy="241.005" r="3.215" fill="#625cb7"/><circle cx="273.135" cy="241.005" r="3.215" fill="#645fb8"/><circle cx="305.265" cy="241.005" r="3.215" fill="#8985c9"/><circle cx="337.405" cy="241.005" r="3.215" fill="#7d80f3"/><circle cx="369.53499999999997" cy="241.005" r="3.215" fill="#d5d6fb"/><circle cx="401.66499999999996" cy="241.005" r="3.215" fill="#9fa1f6"/><circle cx="433.80499999999995" cy="241.005" r="3.215" fill="#fafaff"/><circle cx="465.935" cy="241.005" r="3.215" fill="#f3f3fe"/><circle cx="498.065" cy="241.005" r="3.215" fill="#8884c8"/><circle cx="530.205" cy="241.005" r="3.215" fill="#cdcefb"/><circle cx="562.335" cy="241.005" r="3.215" fill="#7f7ac4"/><circle cx="594.465" cy="241.005" r="3.215" fill="#a7a4d6"/><circle cx="626.605" cy="241.005" r="3.215" fill="#e4e5fd"/><circle cx="658.735" cy="241.005" r="3.215" fill="#e0e1fc"/><circle cx="690.865" cy="241.005" r="3.215" fill="#6b6ef2"/><circle cx="723.005" cy="241.005" r="3.215" fill="#e7e8fd"/><circle cx="755.135" cy="241.005" r="3.215" fill="#d9dafc"/><circle cx="787.265" cy="241.005" r="3.215" fill="#adaad9"/><circle cx="16.064999999999998" cy="273.135" r="3.215" fill="#9491ce"/><circle cx="48.205" cy="273.135" r="3.215" fill="#d9dafc"/><circle cx="80.33500000000001" cy="273.135" r="3.215" fill="#b4b1dd"/><circle cx="112.465" cy="273.135" r="3.215" fill="#f2f2fe"/><circle cx="144.605" cy="273.135" r="3.215" fill="#f4f4fe"/><circle cx="176.735" cy="273.135" r="3.215" fill="#746fbf"/><circle cx="208.865" cy="273.135" r="3.215" fill="#403aa7"/><circle cx="241.005" cy="273.135" r="3.215" fill="#a4a6f7"/><circle cx="273.135" cy="273.135" r="3.215" fill="#b8b6de"/><circle cx="305.265" cy="273.135" r="3.215" fill="#8884c8"/><circle cx="337.405" cy="273.135" r="3.215" fill="#afacda"/><circle cx="369.53499999999997" cy="273.135" r="3.215" fill="#9496f5"/><circle cx="401.66499999999996" cy="273.135" r="3.215" fill="#b8b6de"/><circle cx="433.80499999999995" cy="273.135" r="3.215" fill="#bebbe1"/><circle cx="465.935" cy="273.135" r="3.215" fill="#9996d0"/><circle cx="498.065" cy="273.135" r="3.215" fill="#a8a9f7"/><circle cx="530.205" cy="273.135" r="3.215" fill="#f2f2f9"/><circle cx="562.335" cy="273.135" r="3.215" fill="#d6d5ec"/><circle cx="594.465" cy="273.135" r="3.215" fill="#b2b3f8"/><circle cx="626.605" cy="273.135" r="3.215" fill="#7e80f3"/><circle cx="658.735" cy="273.135" r="3.215" fill="#a19dd4"/><circle cx="690.865" cy="273.135" r="3.215" fill="#6964ba"/><circle cx="723.005" cy="273.135" r="3.215" fill="#bdbff9"/><circle cx="755.135" cy="273.135" r="3.215" fill="#f5f5fe"/><circle cx="787.265" cy="273.135" r="3.215" fill="#a5a7f7"/><circle cx="16.064999999999998" cy="305.265" r="3.215" fill="#3c36a5"/><circle cx="48.205" cy="305.265" r="3.215" fill="#efeff8"/><circle cx="80.33500000000001" cy="305.265" r="3.215" fill="#8b8ef5"/><circle cx="112.465" cy="305.265" r="3.215" fill="#746fbf"/><circle cx="144.605" cy="305.265" r="3.215" fill="#d8d6ed"/><circle cx="176.735" cy="305.265" r="3.215" fill="#fbfbff"/><circle cx="208.865" cy="305.265" r="3.215" fill="#e3e4fd"/><circle cx="241.005" cy="305.265" r="3.215" fill="#827ec6"/><circle cx="273.135" cy="305.265" r="3.215" fill="#f2f2fe"/><circle cx="305.265" cy="305.265" r="3.215" fill="#e0dff1"/><circle cx="337.405" cy="305.265" r="3.215" fill="#e4e5fd"/><circle cx="369.53499999999997" cy="305.265" r="3.215" fill="#c5c6fa"/><circle cx="401.66499999999996" cy="305.265" r="3.215" fill="#bcbdf9"/><circle cx="433.80499999999995" cy="305.265" r="3.215" fill="#9698f6"/><circle cx="465.935" cy="305.265" r="3.215" fill="#7073f2"/><circle cx="498.065" cy="305.265" r="3.215" fill="#787bf3"/><circle cx="530.205" cy="305.265" r="3.215" fill="#ebebfd"/><circle cx="562.335" cy="305.265" r="3.215" fill="#7570bf"/><circle cx="594.465" cy="305.265" r="3.215" fill="#a0a2f6"/><circle cx="626.605" cy="305.265" r="3.215" fill="#f4f4fa"/><circle cx="658.735" cy="305.265" r="3.215" fill="#b8baf9"/><circle cx="690.865" cy="305.265" r="3.215" fill="#bbbdf9"/><circle cx="723.005" cy="305.265" r="3.215" fill="#eff0fe"/><circle cx="755.135" cy="305.265" r="3.215" fill="#6669f1"/><circle cx="787.265" cy="305.265" r="3.215" fill="#5650b1"/></g></svg>